<?xml version="1.0" standalone="no"?><!DOCTYPE svg PUBLIC "-//W3C//DTD SVG 1.1//EN" "http://www.w3.org/Graphics/SVG/1.1/DTD/svg11.dtd"><svg t="1653549252260" class="icon" viewBox="0 0 1024 1024" version="1.1" xmlns="http://www.w3.org/2000/svg" p-id="4242" xmlns:xlink="http://www.w3.org/1999/xlink" width="200" height="200"><defs><style type="text/css">@font-face { font-family: feedback-iconfont; src: url("//at.alicdn.com/t/font_1031158_u69w8yhxdu.woff2?t=1630033759944") format("woff2"), url("//at.alicdn.com/t/font_1031158_u69w8yhxdu.woff?t=1630033759944") format("woff"), url("//at.alicdn.com/t/font_1031158_u69w8yhxdu.ttf?t=1630033759944") format("truetype"); }
</style></defs><path d="M928.263354 1024a49.87349 49.87349 0 0 1-37.405117-16.956987l-192.511671-217.94715A425.420868 425.420868 0 0 1 53.981077 510.303055 427.415808 427.415808 0 0 1 482.394355 0.097253a430.408217 430.408217 0 0 1 416.44364 394.499305 425.919603 425.919603 0 0 1-25.934215 183.035708 49.87349 49.87349 0 0 1-93.263426-35.410178 327.668828 327.668828 0 0 0-299.240939-442.377855 322.182744 322.182744 0 0 0-257.347207 116.205231 327.668828 327.668828 0 0 0 423.924663 488.760201 99.74698 99.74698 0 0 1 125.681195 18.453191l192.511671 217.947151a49.87349 49.87349 0 0 1-37.405118 82.789993z" fill="#3E2AD1" p-id="4243"></path></svg>