<?xml version="1.0" standalone="no"?><!DOCTYPE svg PUBLIC "-//W3C//DTD SVG 1.1//EN" "http://www.w3.org/Graphics/SVG/1.1/DTD/svg11.dtd"><svg t="1653613986497" class="icon" viewBox="0 0 1024 1024" version="1.1" xmlns="http://www.w3.org/2000/svg" p-id="12005" xmlns:xlink="http://www.w3.org/1999/xlink" width="200" height="200"><defs><style type="text/css">@font-face { font-family: feedback-iconfont; src: url("//at.alicdn.com/t/font_1031158_u69w8yhxdu.woff2?t=1630033759944") format("woff2"), url("//at.alicdn.com/t/font_1031158_u69w8yhxdu.woff?t=1630033759944") format("woff"), url("//at.alicdn.com/t/font_1031158_u69w8yhxdu.ttf?t=1630033759944") format("truetype"); }
</style></defs><path d="M171.52 923.4432c-38.5536 0-69.9392-31.3856-69.9392-69.9392s31.3856-69.9392 69.9392-69.9392 69.9392 31.3856 69.9392 69.9392-31.3856 69.9392-69.9392 69.9392z m0-104.0384c-18.7904 0-34.0992 15.3088-34.0992 34.0992s15.3088 34.0992 34.0992 34.0992 34.0992-15.3088 34.0992-34.0992-15.3088-34.0992-34.0992-34.0992z" fill="#E2E5F1" p-id="12006"></path><path d="M868.1984 152.9344m-34.6624 0a34.6624 34.6624 0 1 0 69.3248 0 34.6624 34.6624 0 1 0-69.3248 0Z" fill="#E2E5F1" p-id="12007"></path><path d="M687.616 906.8032h96.0512c8.4992 0 15.36-6.8608 15.36-15.36s-6.8608-15.36-15.36-15.36H687.616c-8.4992 0-15.36 6.8608-15.36 15.36s6.912 15.36 15.36 15.36z" fill="#E2E5F1" p-id="12008"></path><path d="M833.28 892.5696m-17.3568 0a17.3568 17.3568 0 1 0 34.7136 0 17.3568 17.3568 0 1 0-34.7136 0Z" fill="#CBDCFF" p-id="12009"></path><path d="M730.4704 145.5104a48.80384 48.80384 0 0 0-43.2128-26.0096H338.8416c-18.432 0-35.2768 10.3424-43.6224 26.7776l-41.4208 81.7152h520.2944l-43.6224-82.4832z" fill="#9E80E8" p-id="12010"></path><path d="M238.1312 399.2064l28.6208 415.5904c3.0208 43.776 39.424 77.7728 83.3024 77.7728h319.4368c43.5712 0 79.7696-33.4848 83.2512-76.9024l33.1264-416.4608H238.1312z" fill="#FAC573" p-id="12011"></path><path d="M825.1392 399.2064H198.8608a43.0592 43.0592 0 0 1-43.0592-43.0592V271.0528a43.0592 43.0592 0 0 1 43.0592-43.0592h626.3296a43.0592 43.0592 0 0 1 43.0592 43.0592v85.0944a43.10016 43.10016 0 0 1-43.1104 43.0592z" fill="#FF6C73" p-id="12012"></path><path d="M719.6672 407.8592l-30.3104 399.36a29.3632 29.3632 0 0 1-29.2352 27.136H359.8336c-39.2192 0-69.632-4.4032-83.3536-25.9584 3.4304 26.9824 15.2064 79.9232 105.4208 79.9232h287.744c29.6448 0 77.2096-27.648 83.712-80.2304 6.5024-52.5824 27.0848-400.1792 27.0848-400.1792h-60.7744z" fill="#EF981A" p-id="12013"></path><path d="M808.5504 240.5376v86.4256c0 7.4752-6.0928 13.568-13.568 13.568H159.5904S150.016 399.2064 221.5936 399.2064h587.9296c29.44 0 58.6752-13.568 58.6752-50.176V275.1488c0-21.6576-17.152-46.3872-59.648-34.6112z" fill="#FF4E51" p-id="12014"></path><path d="M656.896 121.088l32.3584 61.7984H283.392l-21.7088 45.056h520.2432l-68.2496-110.1312z" fill="#8669E0" p-id="12015"></path><path d="M825.1392 207.5136h-38.7072l-37.888-71.5776a69.16096 69.16096 0 0 0-61.3376-36.9152H338.8416c-26.2656 0-49.9712 14.5408-61.8496 37.9904l-35.7376 70.5024h-42.3936c-35.0208 0-63.5392 28.5184-63.5392 63.5392v85.0944c0 35.0208 28.5184 63.5392 63.5392 63.5392h20.1728l27.3408 396.544c3.7376 54.3232 49.3056 96.8192 103.7312 96.8192h319.4368c53.8624 0 99.3792-42.0352 103.68-95.744l31.5904-397.6192h20.3776c35.0208 0 63.5392-28.5184 63.5392-63.5392V271.0528c-0.0512-35.072-28.5184-63.5392-63.5904-63.5392zM313.4976 155.4944a28.24704 28.24704 0 0 1 25.344-15.5648h348.416c10.5472 0 20.1728 5.7856 25.088 15.104l27.7504 52.4288H287.1808l26.3168-51.968zM732.3648 814.08c-2.56 32.5632-30.1568 58.0096-62.8224 58.0096h-319.488c-32.9728 0-60.6208-25.8048-62.8736-58.6752l-27.136-393.728h503.6032L732.3648 814.08z m115.3536-457.9328c0 12.4416-10.1376 22.5792-22.5792 22.5792H198.8608c-12.4416 0-22.5792-10.1376-22.5792-22.5792V271.0528c0-12.4416 10.1376-22.5792 22.5792-22.5792h626.3296c12.4416 0 22.5792 10.1376 22.5792 22.5792v85.0944z" fill="#211D38" p-id="12016"></path><path d="M512.9728 600.5248m-95.0784 0a95.0784 95.0784 0 1 0 190.1568 0 95.0784 95.0784 0 1 0-190.1568 0Z" fill="#C5DAFF" p-id="12017"></path><path d="M500.3776 518.2976s61.44 33.8432 61.44 80.384-39.0144 82.3808-97.28 83.6608c71.7824 10.3424 143.5648-5.5296 143.5648-81.8688s-75.0592-91.2896-107.7248-82.176z" fill="#9AC0EF" p-id="12018"></path><path d="M512.9728 716.1344c-63.744 0-115.5584-51.8656-115.5584-115.5584s51.8656-115.5584 115.5584-115.5584 115.5584 51.8656 115.5584 115.5584-51.8144 115.5584-115.5584 115.5584z m0-190.208c-41.1648 0-74.5984 33.4848-74.5984 74.5984s33.4848 74.5984 74.5984 74.5984 74.5984-33.4848 74.5984-74.5984-33.4336-74.5984-74.5984-74.5984z" fill="#211D38" p-id="12019"></path><path d="M470.6816 165.7344H351.0784a12.8 12.8 0 0 1 0-25.6h119.6032a12.8 12.8 0 0 1 0 25.6zM558.1312 279.1936H517.12a12.8 12.8 0 0 1 0-25.6h41.0112a12.8 12.8 0 0 1 0 25.6zM194.3552 317.44a12.8 12.8 0 0 1-12.8-12.8v-21.7088c0-16.1792 13.1584-29.3376 29.3376-29.3376h226.6112a12.8 12.8 0 0 1 0 25.6H210.8928c-2.048 0-3.7376 1.6896-3.7376 3.7376v21.7088c0 7.0656-5.6832 12.8-12.8 12.8zM297.1136 728.5248c-6.6048 0-12.1856-5.0688-12.7488-11.776l-20.5824-252.7232c-0.5632-7.0656 4.6592-13.2096 11.7248-13.824 7.0144-0.512 13.2096 4.6592 13.824 11.7248l20.5824 252.7232c0.5632 7.0656-4.6592 13.2096-11.7248 13.824-0.4096 0-0.768 0.0512-1.0752 0.0512zM454.4 626.432c-6.4512 0-12.032-4.864-12.6976-11.4176-5.632-52.6336 28.1088-77.1072 46.7456-82.688 6.7584-2.048 13.9264 1.792 15.9232 8.6016a12.8512 12.8512 0 0 1-8.4992 15.9232c-3.5328 1.1264-33.3824 12.0832-28.7232 55.5008 0.768 7.0144-4.352 13.312-11.3664 14.08-0.4608-0.0512-0.9216 0-1.3824 0z" fill="#FFFFFF" p-id="12020"></path></svg>