<?xml version="1.0" standalone="no"?><!DOCTYPE svg PUBLIC "-//W3C//DTD SVG 1.1//EN" "http://www.w3.org/Graphics/SVG/1.1/DTD/svg11.dtd"><svg t="1653641355608" class="icon" viewBox="0 0 1024 1024" version="1.1" xmlns="http://www.w3.org/2000/svg" p-id="12852" xmlns:xlink="http://www.w3.org/1999/xlink" width="200" height="200"><defs><style type="text/css">@font-face { font-family: feedback-iconfont; src: url("//at.alicdn.com/t/font_1031158_u69w8yhxdu.woff2?t=1630033759944") format("woff2"), url("//at.alicdn.com/t/font_1031158_u69w8yhxdu.woff?t=1630033759944") format("woff"), url("//at.alicdn.com/t/font_1031158_u69w8yhxdu.ttf?t=1630033759944") format("truetype"); }
</style></defs><path d="M158 316.155c0 16.568-13.431 30-30 30-16.569 0-30-13.432-30-30V159c0-33.137 26.863-60 60-60h706c33.137 0 60 26.863 60 60v157.155c0 16.568-13.431 30-30 30-16.569 0-30-13.432-30-30V159H158v157.155zM864 707.54c0-16.568 13.431-30 30-30 16.569 0 30 13.432 30 30V865c0 33.137-26.863 60-60 60H158c-33.137 0-60-26.863-60-60V707.54c0-16.568 13.431-30 30-30 16.569 0 30 13.432 30 30V865h706V707.54z" fill="#2F54EB" p-id="12853"></path><path d="M187 542c-16.569 0-30-13.431-30-30 0-16.569 13.431-30 30-30h651c16.569 0 30 13.431 30 30 0 16.569-13.431 30-30 30H187z" fill="#85A5FF" p-id="12854"></path></svg>