<?xml version="1.0" standalone="no"?><!DOCTYPE svg PUBLIC "-//W3C//DTD SVG 1.1//EN" "http://www.w3.org/Graphics/SVG/1.1/DTD/svg11.dtd"><svg t="1655262425255" class="icon" viewBox="0 0 1058 1024" version="1.1" xmlns="http://www.w3.org/2000/svg" p-id="5074" xmlns:xlink="http://www.w3.org/1999/xlink" width="206.640625" height="200"><defs><style type="text/css">@font-face { font-family: feedback-iconfont; src: url("//at.alicdn.com/t/font_1031158_u69w8yhxdu.woff2?t=1630033759944") format("woff2"), url("//at.alicdn.com/t/font_1031158_u69w8yhxdu.woff?t=1630033759944") format("woff"), url("//at.alicdn.com/t/font_1031158_u69w8yhxdu.ttf?t=1630033759944") format("truetype"); }
</style></defs><path d="M124.326957 100.61913H30.831304a30.831304 30.831304 0 1 1 0-61.662608h118.984348c14.803478 0 27.492174 10.462609 30.274783 25.043478l25.377391 130.893913H986.935652c22.594783 0 43.853913 10.573913 57.433044 28.493913a72.125217 72.125217 0 0 1 11.909565 62.998261L960.77913 625.530435a154.479304 154.479304 0 0 1-148.702608 112.64H375.206957c-73.906087 0-137.46087-52.424348-151.596522-124.994783L124.326957 100.61913z m93.050434 155.937392l66.893913 344.709565a92.649739 92.649739 0 0 0 90.935653 75.01913H812.187826c41.516522 0 77.913043-27.603478 89.154783-67.561739l95.49913-339.144348a10.284522 10.284522 0 0 0-9.794782-13.133913H217.377391z m575.332174 728.598261c-62.553043 0-113.307826-50.754783-113.307826-113.196522 0-62.553043 50.754783-113.307826 113.307826-113.307826s113.196522 50.754783 113.196522 113.307826c0 62.441739-50.643478 113.196522-113.196522 113.196522z m0-61.773913c28.382609 0 51.422609-23.04 51.422609-51.422609 0-28.382609-23.04-51.422609-51.422609-51.422609-28.382609 0-51.422609 23.04-51.422608 51.422609-0.111304 28.382609 22.928696 51.422609 51.422608 51.422609z m-411.826087 61.773913c-62.553043 0-113.307826-50.754783-113.307826-113.196522 0-62.553043 50.754783-113.307826 113.307826-113.307826s113.196522 50.754783 113.196522 113.307826c0 62.441739-50.643478 113.196522-113.196522 113.196522z m0-61.773913c28.382609 0 51.422609-23.04 51.422609-51.422609 0-28.382609-23.04-51.422609-51.422609-51.422609-28.382609 0-51.422609 23.04-51.422608 51.422609-0.111304 28.382609 22.928696 51.422609 51.422608 51.422609z m-30.942608-504.542609c-17.029565 0-30.942609-13.801739-30.942609-30.831304s13.801739-30.831304 30.942609-30.831305a30.831304 30.831304 0 0 1 30.831304 30.831305 30.686609 30.686609 0 0 1-30.831304 30.831304z m50.19826 123.547826a30.831304 30.831304 0 0 1-30.831304-30.831304c0-17.029565 13.801739-30.942609 30.831304-30.942609a30.942609 30.942609 0 0 1 30.942609 30.942609 30.998261 30.998261 0 0 1-30.942609 30.831304z m73.349566-123.547826a30.831304 30.831304 0 1 1 0-61.662609c17.029565 0 30.942609 13.801739 30.942608 30.831305s-13.801739 30.831304-30.942608 30.831304zM529.474783 542.386087a30.831304 30.831304 0 0 1-30.831305-30.831304c0-17.029565 13.801739-30.942609 30.831305-30.942609s30.831304 13.801739 30.831304 30.942609c0.111304 17.029565-13.801739 30.831304-30.831304 30.831304z m67.561739-123.547826a30.831304 30.831304 0 1 1 30.831304-30.831304 30.686609 30.686609 0 0 1-30.831304 30.831304z m61.773913 123.547826c-17.029565 0-30.942609-13.801739-30.942609-30.831304a30.942609 30.942609 0 0 1 30.942609-30.942609c17.029565 0 30.831304 13.801739 30.831304 30.942609a30.686609 30.686609 0 0 1-30.831304 30.831304z m61.773913-123.547826a30.831304 30.831304 0 1 1 30.831304-30.831304 30.686609 30.686609 0 0 1-30.831304 30.831304z m61.773913 123.547826a30.831304 30.831304 0 0 1-30.831304-30.831304c0-17.029565 13.801739-30.942609 30.831304-30.942609a30.942609 30.942609 0 0 1 30.942609 30.942609c0 17.029565-13.801739 30.831304-30.942609 30.831304z m61.773913-123.547826a30.831304 30.831304 0 1 1 30.831304-30.831304c0.111304 17.029565-13.801739 30.831304-30.831304 30.831304z m0 0" p-id="5075"></path></svg>